<svg width="136" height="29" viewBox="0 0 136 29" fill="none" xmlns="http://www.w3.org/2000/svg">
<path d="M3.09375 17.4062L0 15.0625L7.34375 4.9375L10.875 8.0625L16 0.75L20.125 5.15625L23.9062 0L27.125 2.375L20.5312 11.375L16.5 7.0625L11.5938 14.0312L7.90625 10.7812L3.09375 17.4062ZM19.0938 22.7812C19.7604 22.7812 20.3333 22.5417 20.8125 22.0625C21.2917 21.5833 21.5312 21.0104 21.5312 20.3438C21.5312 19.6771 21.2917 19.1042 20.8125 18.625C20.3333 18.1458 19.7604 17.9062 19.0938 17.9062C18.4271 17.9062 17.8542 18.1458 17.375 18.625C16.8958 19.1042 16.6562 19.6771 16.6562 20.3438C16.6562 21.0104 16.8958 21.5833 17.375 22.0625C17.8542 22.5417 18.4271 22.7812 19.0938 22.7812ZM24.5938 28.5625L22.0312 26C21.5938 26.2292 21.1302 26.4062 20.6406 26.5312C20.151 26.6562 19.6354 26.7188 19.0938 26.7188C17.3229 26.7188 15.8177 26.099 14.5781 24.8594C13.3385 23.6198 12.7188 22.1146 12.7188 20.3438C12.7188 18.5729 13.3385 17.0677 14.5781 15.8281C15.8177 14.5885 17.3229 13.9688 19.0938 13.9688C20.8646 13.9688 22.3698 14.5885 23.6094 15.8281C24.849 17.0677 25.4688 18.5729 25.4688 20.3438C25.4688 20.8646 25.4115 21.3646 25.2969 21.8438C25.1823 22.3229 25.0104 22.7812 24.7812 23.2188L27.3438 25.7812L24.5938 28.5625Z" fill="#2563EB"/>
<path d="M36.7438 22.2812V7.88125H39.1838L43.9438 17.4413L48.7037 7.88125H51.1438V22.2812H48.6037V13.6812L44.4237 22.2812H43.4637L39.2837 13.6812V22.2812H36.7438ZM58.3038 22.5812C57.2171 22.5812 56.2638 22.3379 55.4438 21.8512C54.6238 21.3646 53.9854 20.6929 53.5288 19.8363C53.0721 18.9796 52.8438 17.9946 52.8438 16.8812C52.8438 15.7546 53.0771 14.7629 53.5438 13.9063C54.0104 13.0496 54.6538 12.3812 55.4738 11.9013C56.2938 11.4212 57.2371 11.1812 58.3038 11.1812C59.3904 11.1812 60.3454 11.4246 61.1688 11.9113C61.9921 12.3979 62.6338 13.0696 63.0938 13.9262C63.5538 14.7829 63.7838 15.7679 63.7838 16.8812C63.7838 18.0012 63.5521 18.9896 63.0888 19.8463C62.6254 20.7029 61.9821 21.3729 61.1588 21.8562C60.3354 22.3396 59.3838 22.5812 58.3038 22.5812ZM58.3038 20.0412C59.1771 20.0412 59.8288 19.7462 60.2588 19.1562C60.6888 18.5663 60.9038 17.8079 60.9038 16.8812C60.9038 15.9212 60.6854 15.1546 60.2488 14.5813C59.8121 14.0079 59.1638 13.7212 58.3038 13.7212C57.7104 13.7212 57.2238 13.8546 56.8438 14.1213C56.4638 14.3879 56.1821 14.7579 55.9988 15.2313C55.8154 15.7046 55.7238 16.2546 55.7238 16.8812C55.7238 17.8479 55.9421 18.6162 56.3788 19.1862C56.8154 19.7562 57.4571 20.0412 58.3038 20.0412ZM65.6837 22.2812V7.58125H68.4037V22.2812H65.6837ZM72.2837 27.0812L74.3637 21.3612L74.4037 23.0412L69.7037 11.4812H72.5237L75.6837 19.6613H75.0438L78.1837 11.4812H80.9037L74.8037 27.0812H72.2837ZM87.2438 22.5812C86.1771 22.5812 85.2154 22.3929 84.3588 22.0163C83.5021 21.6396 82.7988 21.0996 82.2488 20.3962C81.6988 19.6929 81.3504 18.8546 81.2038 17.8813L84.0438 17.4613C84.2438 18.2879 84.6571 18.9246 85.2838 19.3712C85.9104 19.8179 86.6238 20.0412 87.4238 20.0412C87.8704 20.0412 88.3038 19.9712 88.7238 19.8312C89.1438 19.6912 89.4888 19.4846 89.7588 19.2112C90.0288 18.9379 90.1638 18.6013 90.1638 18.2013C90.1638 18.0546 90.1421 17.9129 90.0988 17.7762C90.0554 17.6396 89.9838 17.5113 89.8838 17.3913C89.7838 17.2712 89.6421 17.1579 89.4588 17.0512C89.2754 16.9446 89.0438 16.8479 88.7638 16.7613L85.0238 15.6612C84.7438 15.5812 84.4188 15.4679 84.0488 15.3213C83.6788 15.1746 83.3204 14.9646 82.9738 14.6912C82.6271 14.4179 82.3388 14.0562 82.1088 13.6062C81.8788 13.1562 81.7638 12.5879 81.7638 11.9013C81.7638 10.9346 82.0071 10.1313 82.4938 9.49125C82.9804 8.85125 83.6304 8.37458 84.4438 8.06125C85.2571 7.74792 86.1571 7.59458 87.1438 7.60125C88.1371 7.61458 89.0238 7.78458 89.8038 8.11125C90.5838 8.43792 91.2371 8.91292 91.7638 9.53625C92.2904 10.1596 92.6704 10.9213 92.9038 11.8212L89.9638 12.3213C89.8571 11.8546 89.6604 11.4613 89.3738 11.1413C89.0871 10.8213 88.7454 10.5779 88.3488 10.4112C87.9521 10.2446 87.5371 10.1546 87.1038 10.1413C86.6771 10.1279 86.2754 10.1863 85.8988 10.3163C85.5221 10.4462 85.2154 10.6346 84.9788 10.8813C84.7421 11.1279 84.6238 11.4212 84.6238 11.7612C84.6238 12.0746 84.7204 12.3296 84.9138 12.5263C85.1071 12.7229 85.3504 12.8813 85.6438 13.0013C85.9371 13.1212 86.2371 13.2212 86.5438 13.3012L89.0438 13.9813C89.4171 14.0813 89.8304 14.2129 90.2838 14.3763C90.7371 14.5396 91.1721 14.7663 91.5888 15.0562C92.0054 15.3462 92.3488 15.7279 92.6188 16.2013C92.8888 16.6746 93.0238 17.2746 93.0238 18.0012C93.0238 18.7746 92.8621 19.4496 92.5388 20.0262C92.2154 20.6029 91.7804 21.0796 91.2338 21.4562C90.6871 21.8329 90.0688 22.1146 89.3788 22.3013C88.6888 22.4879 87.9771 22.5812 87.2438 22.5812ZM101.204 22.2812C100.457 22.4212 99.7254 22.4829 99.0087 22.4663C98.2921 22.4496 97.6521 22.3229 97.0887 22.0862C96.5254 21.8496 96.0971 21.4679 95.8037 20.9412C95.5371 20.4479 95.3971 19.9462 95.3837 19.4362C95.3704 18.9262 95.3637 18.3479 95.3637 17.7012V8.48125H98.0837V17.5412C98.0837 17.9612 98.0887 18.3396 98.0987 18.6762C98.1087 19.0129 98.1771 19.2812 98.3037 19.4812C98.5437 19.8612 98.9271 20.0679 99.4537 20.1013C99.9804 20.1346 100.564 20.1079 101.204 20.0213V22.2812ZM93.5237 13.5812V11.4812H101.204V13.5812H93.5237ZM107.364 22.5812C106.277 22.5812 105.324 22.3379 104.504 21.8512C103.684 21.3646 103.045 20.6929 102.589 19.8363C102.132 18.9796 101.904 17.9946 101.904 16.8812C101.904 15.7546 102.137 14.7629 102.604 13.9063C103.07 13.0496 103.714 12.3812 104.534 11.9013C105.354 11.4212 106.297 11.1812 107.364 11.1812C108.45 11.1812 109.405 11.4246 110.229 11.9113C111.052 12.3979 111.694 13.0696 112.154 13.9262C112.614 14.7829 112.844 15.7679 112.844 16.8812C112.844 18.0012 112.612 18.9896 112.149 19.8463C111.685 20.7029 111.042 21.3729 110.219 21.8562C109.395 22.3396 108.444 22.5812 107.364 22.5812ZM107.364 20.0412C108.237 20.0412 108.889 19.7462 109.319 19.1562C109.749 18.5663 109.964 17.8079 109.964 16.8812C109.964 15.9212 109.745 15.1546 109.309 14.5813C108.872 14.0079 108.224 13.7212 107.364 13.7212C106.77 13.7212 106.284 13.8546 105.904 14.1213C105.524 14.3879 105.242 14.7579 105.059 15.2313C104.875 15.7046 104.784 16.2546 104.784 16.8812C104.784 17.8479 105.002 18.6162 105.439 19.1862C105.875 19.7562 106.517 20.0412 107.364 20.0412ZM119.304 22.5812C118.184 22.5812 117.224 22.3312 116.424 21.8312C115.624 21.3313 115.01 20.6513 114.584 19.7913C114.157 18.9313 113.944 17.9612 113.944 16.8812C113.944 15.7879 114.165 14.8113 114.609 13.9512C115.052 13.0912 115.677 12.4146 116.484 11.9212C117.29 11.4279 118.244 11.1812 119.344 11.1812C120.617 11.1812 121.685 11.5029 122.549 12.1463C123.412 12.7896 123.964 13.6679 124.204 14.7812L121.484 15.5013C121.324 14.9412 121.045 14.5046 120.649 14.1912C120.252 13.8779 119.804 13.7212 119.304 13.7212C118.73 13.7212 118.26 13.8596 117.894 14.1363C117.527 14.4129 117.257 14.7896 117.084 15.2663C116.91 15.7429 116.824 16.2812 116.824 16.8812C116.824 17.8213 117.032 18.5829 117.449 19.1662C117.865 19.7496 118.484 20.0412 119.304 20.0412C119.917 20.0412 120.384 19.9012 120.704 19.6212C121.024 19.3413 121.264 18.9412 121.424 18.4212L124.204 19.0012C123.897 20.1479 123.317 21.0312 122.464 21.6512C121.61 22.2712 120.557 22.5812 119.304 22.5812ZM125.684 22.2812L125.704 7.88125H128.464V16.6812L132.124 11.4812H135.484L131.584 16.8812L135.744 22.2812H132.204L128.464 17.0813V22.2812H125.684Z" fill="white"/>
</svg>
